<mxfile host="app.diagrams.net" agent="Mozilla/5.0 (Windows NT 10.0; Win64; x64) AppleWebKit/537.36 (KHTML, like Gecko) Chrome/132.0.0.0 Safari/537.36" version="26.0.10">
  <diagram name="Page-1" id="oV01b-HNF_Mf-Ec9-7xv">
    <mxGraphModel dx="1235" dy="655" grid="1" gridSize="10" guides="1" tooltips="1" connect="1" arrows="1" fold="1" page="1" pageScale="1" pageWidth="1169" pageHeight="827" math="0" shadow="0">
      <root>
        <mxCell id="0" />
        <mxCell id="1" parent="0" />
        <mxCell id="ZqZKZoasxupurB8ot2Dj-6" value="" style="edgeStyle=orthogonalEdgeStyle;rounded=0;orthogonalLoop=1;jettySize=auto;html=1;" edge="1" parent="1" source="ZqZKZoasxupurB8ot2Dj-1" target="ZqZKZoasxupurB8ot2Dj-4">
          <mxGeometry relative="1" as="geometry" />
        </mxCell>
        <mxCell id="ZqZKZoasxupurB8ot2Dj-10" style="edgeStyle=elbowEdgeStyle;rounded=0;orthogonalLoop=1;jettySize=auto;html=1;elbow=vertical;" edge="1" parent="1" source="ZqZKZoasxupurB8ot2Dj-1" target="ZqZKZoasxupurB8ot2Dj-2">
          <mxGeometry relative="1" as="geometry" />
        </mxCell>
        <mxCell id="ZqZKZoasxupurB8ot2Dj-11" style="edgeStyle=elbowEdgeStyle;rounded=0;orthogonalLoop=1;jettySize=auto;html=1;elbow=vertical;" edge="1" parent="1" source="ZqZKZoasxupurB8ot2Dj-1" target="ZqZKZoasxupurB8ot2Dj-3">
          <mxGeometry relative="1" as="geometry" />
        </mxCell>
        <mxCell id="ZqZKZoasxupurB8ot2Dj-12" style="edgeStyle=elbowEdgeStyle;rounded=0;orthogonalLoop=1;jettySize=auto;html=1;entryX=0.5;entryY=0;entryDx=0;entryDy=0;elbow=vertical;" edge="1" parent="1" source="ZqZKZoasxupurB8ot2Dj-1" target="ZqZKZoasxupurB8ot2Dj-5">
          <mxGeometry relative="1" as="geometry" />
        </mxCell>
        <mxCell id="ZqZKZoasxupurB8ot2Dj-28" style="edgeStyle=elbowEdgeStyle;rounded=0;orthogonalLoop=1;jettySize=auto;html=1;elbow=vertical;" edge="1" parent="1" source="ZqZKZoasxupurB8ot2Dj-1" target="ZqZKZoasxupurB8ot2Dj-27">
          <mxGeometry relative="1" as="geometry" />
        </mxCell>
        <mxCell id="ZqZKZoasxupurB8ot2Dj-1" value="BookLib (PVT) Ltd -LMS" style="rounded=0;whiteSpace=wrap;html=1;" vertex="1" parent="1">
          <mxGeometry x="470" y="30" width="230" height="60" as="geometry" />
        </mxCell>
        <mxCell id="ZqZKZoasxupurB8ot2Dj-2" value="Book Management" style="rounded=0;whiteSpace=wrap;html=1;" vertex="1" parent="1">
          <mxGeometry x="60" y="160" width="120" height="60" as="geometry" />
        </mxCell>
        <mxCell id="ZqZKZoasxupurB8ot2Dj-23" style="edgeStyle=orthogonalEdgeStyle;rounded=0;orthogonalLoop=1;jettySize=auto;html=1;" edge="1" parent="1" source="ZqZKZoasxupurB8ot2Dj-3" target="ZqZKZoasxupurB8ot2Dj-20">
          <mxGeometry relative="1" as="geometry" />
        </mxCell>
        <mxCell id="ZqZKZoasxupurB8ot2Dj-3" value="User Management" style="rounded=0;whiteSpace=wrap;html=1;" vertex="1" parent="1">
          <mxGeometry x="290" y="160" width="120" height="60" as="geometry" />
        </mxCell>
        <mxCell id="ZqZKZoasxupurB8ot2Dj-24" style="edgeStyle=orthogonalEdgeStyle;rounded=0;orthogonalLoop=1;jettySize=auto;html=1;" edge="1" parent="1" source="ZqZKZoasxupurB8ot2Dj-4" target="ZqZKZoasxupurB8ot2Dj-21">
          <mxGeometry relative="1" as="geometry" />
        </mxCell>
        <mxCell id="ZqZKZoasxupurB8ot2Dj-4" value="Borrow Management" style="rounded=0;whiteSpace=wrap;html=1;" vertex="1" parent="1">
          <mxGeometry x="540" y="160" width="120" height="60" as="geometry" />
        </mxCell>
        <mxCell id="ZqZKZoasxupurB8ot2Dj-26" style="edgeStyle=elbowEdgeStyle;rounded=0;orthogonalLoop=1;jettySize=auto;html=1;elbow=vertical;" edge="1" parent="1" source="ZqZKZoasxupurB8ot2Dj-5" target="ZqZKZoasxupurB8ot2Dj-25">
          <mxGeometry relative="1" as="geometry" />
        </mxCell>
        <mxCell id="ZqZKZoasxupurB8ot2Dj-5" value="Fine Management" style="rounded=0;whiteSpace=wrap;html=1;" vertex="1" parent="1">
          <mxGeometry x="785" y="160" width="120" height="60" as="geometry" />
        </mxCell>
        <mxCell id="ZqZKZoasxupurB8ot2Dj-19" value="&#xa;&lt;li class=&quot;whitespace-normal break-words&quot;&gt;Add new books (ISBN, title, author, genre, availability)&lt;/li&gt;&#xa;&lt;li class=&quot;whitespace-normal break-words&quot;&gt;Update existing book details&lt;/li&gt;&#xa;&lt;li class=&quot;whitespace-normal break-words&quot;&gt;Delete books&lt;/li&gt;&#xa;&lt;li class=&quot;whitespace-normal break-words&quot;&gt;Search books by various criteria&lt;/li&gt;&#xa;&lt;li class=&quot;whitespace-normal break-words&quot;&gt;View all books&lt;/li&gt;&#xa;&#xa;" style="rounded=1;whiteSpace=wrap;html=1;arcSize=0;" vertex="1" parent="1">
          <mxGeometry x="30" y="460" width="320" height="150" as="geometry" />
        </mxCell>
        <mxCell id="ZqZKZoasxupurB8ot2Dj-20" value="&lt;li class=&quot;whitespace-normal break-words&quot;&gt;Add new users (name, ID, contact info, membership date)&lt;/li&gt;&lt;br/&gt;&lt;li class=&quot;whitespace-normal break-words&quot;&gt;Update user information&lt;/li&gt;&lt;br/&gt;&lt;li class=&quot;whitespace-normal break-words&quot;&gt;Delete users&lt;/li&gt;&lt;br/&gt;&lt;li class=&quot;whitespace-normal break-words&quot;&gt;Search users&lt;/li&gt;&lt;br/&gt;&lt;li class=&quot;whitespace-normal break-words&quot;&gt;View all users&lt;/li&gt;" style="rounded=0;whiteSpace=wrap;html=1;" vertex="1" parent="1">
          <mxGeometry x="240" y="280" width="220" height="150" as="geometry" />
        </mxCell>
        <mxCell id="ZqZKZoasxupurB8ot2Dj-21" value="&lt;li class=&quot;whitespace-normal break-words&quot;&gt;Handle book borrowing (with limit of 3 books per user)&lt;/li&gt;&lt;br/&gt;&lt;li class=&quot;whitespace-normal break-words&quot;&gt;Process book returns&lt;/li&gt;&lt;br/&gt;&lt;li class=&quot;whitespace-normal break-words&quot;&gt;View borrowing history&lt;/li&gt;" style="rounded=0;whiteSpace=wrap;html=1;" vertex="1" parent="1">
          <mxGeometry x="490" y="280" width="220" height="150" as="geometry" />
        </mxCell>
        <mxCell id="ZqZKZoasxupurB8ot2Dj-22" style="edgeStyle=orthogonalEdgeStyle;rounded=0;orthogonalLoop=1;jettySize=auto;html=1;entryX=0.466;entryY=-0.001;entryDx=0;entryDy=0;entryPerimeter=0;" edge="1" parent="1" source="ZqZKZoasxupurB8ot2Dj-2" target="ZqZKZoasxupurB8ot2Dj-19">
          <mxGeometry relative="1" as="geometry" />
        </mxCell>
        <mxCell id="ZqZKZoasxupurB8ot2Dj-25" value="&lt;li class=&quot;whitespace-normal break-words&quot;&gt;Automatic fine calculation (Rs. 10 per day overdue)&lt;/li&gt;&lt;br/&gt;&lt;li class=&quot;whitespace-normal break-words&quot;&gt;Process fine payments&lt;/li&gt;&lt;br/&gt;&lt;li class=&quot;whitespace-normal break-words&quot;&gt;View fine detail&lt;/li&gt;" style="rounded=0;whiteSpace=wrap;html=1;" vertex="1" parent="1">
          <mxGeometry x="740" y="287.5" width="210" height="115" as="geometry" />
        </mxCell>
        <mxCell id="ZqZKZoasxupurB8ot2Dj-30" style="edgeStyle=elbowEdgeStyle;rounded=0;orthogonalLoop=1;jettySize=auto;html=1;entryX=0.5;entryY=0;entryDx=0;entryDy=0;elbow=vertical;" edge="1" parent="1" source="ZqZKZoasxupurB8ot2Dj-27" target="ZqZKZoasxupurB8ot2Dj-29">
          <mxGeometry relative="1" as="geometry" />
        </mxCell>
        <mxCell id="ZqZKZoasxupurB8ot2Dj-27" value="Report Management" style="rounded=0;whiteSpace=wrap;html=1;" vertex="1" parent="1">
          <mxGeometry x="970" y="160" width="120" height="60" as="geometry" />
        </mxCell>
        <mxCell id="ZqZKZoasxupurB8ot2Dj-29" value="&lt;li class=&quot;whitespace-normal break-words&quot;&gt;&lt;span style=&quot;background-color: transparent; color: light-dark(rgb(0, 0, 0), rgb(255, 255, 255));&quot;&gt;Generate available books report&lt;/span&gt;&lt;/li&gt;&lt;br&gt;&lt;li class=&quot;whitespace-normal break-words&quot;&gt;Generate borrowed books report&lt;/li&gt;&lt;br&gt;&lt;li class=&quot;whitespace-normal break-words&quot;&gt;Generate overdue books report with fines&lt;/li&gt;" style="rounded=0;whiteSpace=wrap;html=1;" vertex="1" parent="1">
          <mxGeometry x="830" y="450" width="290" height="115" as="geometry" />
        </mxCell>
      </root>
    </mxGraphModel>
  </diagram>
</mxfile>
